<svg width="149" height="51" viewBox="0 0 149 51" fill="none" xmlns="http://www.w3.org/2000/svg">
  <g id="Google">
    <g id="Frame" clip-path="url(#clip0_972_184)">
      <path id="Vector_2" d="M74.2412 21.772C71.8669 21.772 69.9298 23.5645 69.9298 26.0354C69.9525 27.1556 70.4168 28.2223 71.223 29.0065C72.0293 29.7907 73.1132 30.23 74.2421 30.23C75.371 30.23 76.4549 29.7907 77.2611 29.0065C78.0674 28.2223 78.5317 27.1556 78.5544 26.0354C78.5631 23.5645 76.6172 21.772 74.2412 21.772ZM74.2412 28.6191C72.9404 28.6191 71.818 27.5537 71.818 26.0354C71.818 24.5171 72.9404 23.4517 74.2412 23.4517C75.542 23.4517 76.6662 24.4928 76.6662 26.0354C76.6662 27.578 75.5437 28.6191 74.2412 28.6191ZM64.835 21.772C62.4608 21.772 60.5236 23.5645 60.5236 26.0354C60.5168 26.5985 60.6237 27.1572 60.8382 27.6786C61.0526 28.1999 61.3702 28.6733 61.7721 29.0708C62.1741 29.4683 62.6522 29.7817 63.1783 29.9927C63.7044 30.2036 64.2677 30.3077 64.835 30.2988C65.4025 30.3079 65.9661 30.204 66.4923 29.9932C67.0186 29.7823 67.497 29.4689 67.8991 29.0714C68.3012 28.674 68.619 28.2005 68.8335 27.679C69.0481 27.1575 69.1551 26.5986 69.1482 26.0354C69.1482 23.5645 67.2111 21.772 64.835 21.772ZM64.835 28.6191C63.5343 28.6191 62.4118 27.5537 62.4118 26.0354C62.4118 24.5171 63.5273 23.4517 64.835 23.4517C66.1428 23.4517 67.26 24.4928 67.26 26.0354C67.26 27.578 66.1376 28.6191 64.835 28.6191ZM53.6456 23.0803V24.8884H58.006C57.8748 25.907 57.5339 26.6497 57.0129 27.1668C56.3783 27.7967 55.3852 28.4907 53.6456 28.4907C53.012 28.4903 52.3848 28.3651 51.8003 28.1222C51.2159 27.8793 50.6859 27.5236 50.2411 27.0758C49.7962 26.6281 49.4454 26.0971 49.209 25.5136C48.9726 24.9302 48.8553 24.306 48.8638 23.6772C48.8555 23.0485 48.973 22.4243 49.2097 21.841C49.4463 21.2577 49.7973 20.7268 50.2423 20.2791C50.6873 19.8315 51.2175 19.4761 51.802 19.2334C52.3865 18.9907 53.0137 18.8657 53.6473 18.8655C54.8717 18.8499 56.0529 19.3145 56.9342 20.1582L58.2193 18.8811C57.6182 18.2894 56.9043 17.8227 56.1192 17.5084C55.3342 17.194 54.4938 17.0384 53.6473 17.0504C49.9758 17.0504 46.8777 20.0211 46.8777 23.6703C46.8777 27.3195 49.9688 30.2919 53.6473 30.2919C55.6317 30.2919 57.1283 29.6464 58.2997 28.4352C59.5043 27.2396 59.8732 25.56 59.8732 24.2048C59.8771 23.8254 59.8443 23.4465 59.7753 23.0734L53.6456 23.0803ZM99.4053 24.4859C99.0469 23.5332 97.9559 21.772 95.7337 21.772C93.5116 21.772 91.6758 23.5003 91.6758 26.0354C91.6758 28.4265 93.4976 30.2988 95.9383 30.2988C96.6461 30.3026 97.3437 30.1318 97.9687 29.802C98.5936 29.4722 99.1263 28.9936 99.5189 28.4092L98.0538 27.4409C97.566 28.1506 96.8981 28.6191 95.9383 28.6191C94.9785 28.6191 94.2948 28.1836 93.856 27.3281L99.5994 24.97L99.4053 24.4859ZM93.5483 25.9001C93.528 25.5897 93.5703 25.2784 93.6728 24.9844C93.7752 24.6904 93.9358 24.4197 94.145 24.1881C94.3543 23.9565 94.608 23.7687 94.8913 23.6357C95.1746 23.5027 95.4818 23.4272 95.7949 23.4135C96.5432 23.4135 97.1779 23.7848 97.3894 24.3175L93.5483 25.9001ZM88.8784 30.0403H90.7667V17.5085H88.8784V30.0403ZM85.7873 22.7246H85.7314C85.4434 22.4136 85.0914 22.1675 84.6993 22.0032C84.3071 21.8388 83.884 21.76 83.4585 21.772C81.3116 21.772 79.3429 23.646 79.3429 26.051C79.3429 28.456 81.3133 30.2988 83.4585 30.2988C83.8856 30.3115 84.3103 30.2315 84.7029 30.0642C85.0955 29.897 85.4465 29.6466 85.7314 29.3306H85.7961V29.9431C85.7961 31.5742 84.9219 32.447 83.5022 32.447C82.3466 32.447 81.6315 31.6228 81.3378 30.9287L79.6943 31.6072C80.0044 32.3556 80.5323 32.9951 81.2107 33.444C81.8891 33.8928 82.687 34.1305 83.5022 34.1267C85.7157 34.1267 87.5864 32.834 87.5864 29.6846V22.0305H85.7873V22.7246ZM83.6229 28.6244C82.3221 28.6244 81.2311 27.5433 81.2311 26.0562C81.2311 24.5691 82.3221 23.4534 83.6229 23.4534C84.9237 23.4534 85.9185 24.5518 85.9185 26.0562C85.9185 27.5607 84.9097 28.6191 83.6229 28.6191V28.6244ZM108.248 17.519H103.739V30.0403H105.622V25.2927H108.255C110.343 25.2927 112.397 23.7918 112.397 21.4006C112.397 19.0095 110.336 17.5103 108.248 17.5103V17.519ZM108.296 23.5575H105.615V19.2542H108.296C108.585 19.246 108.873 19.2955 109.143 19.3998C109.412 19.504 109.658 19.6609 109.866 19.8611C110.073 20.0613 110.238 20.3008 110.351 20.5653C110.464 20.8299 110.522 21.1143 110.522 21.4015C110.522 21.6887 110.464 21.9731 110.351 22.2377C110.238 22.5023 110.073 22.7417 109.866 22.9419C109.658 23.1422 109.412 23.299 109.143 23.4033C108.873 23.5075 108.585 23.557 108.296 23.5488V23.5575ZM119.943 21.7581C118.578 21.7581 117.165 22.355 116.581 23.6772L118.254 24.3713C118.604 23.6772 119.277 23.4517 119.975 23.4517C120.95 23.4517 121.942 24.033 121.957 25.0654V25.1938C121.356 24.8715 120.683 24.7017 119.999 24.6993C118.195 24.6993 116.361 25.6832 116.361 27.5208C116.361 29.197 117.838 30.278 119.496 30.278C120.761 30.278 121.461 29.7141 121.9 29.053H121.964V30.0195H123.783V25.2164C123.776 22.9901 122.097 21.7494 119.943 21.7494V21.7581ZM119.716 28.6261C119.099 28.6261 118.237 28.319 118.237 27.5624C118.237 26.5941 119.309 26.2228 120.235 26.2228C120.837 26.2074 121.431 26.3524 121.957 26.6427C121.886 27.1847 121.62 27.6829 121.208 28.0457C120.797 28.4085 120.267 28.6115 119.716 28.6174V28.6261ZM130.404 22.0323L128.243 27.4618H128.178L125.944 22.0236H123.907L127.269 29.6169L125.346 33.8404H127.311L132.493 22.0236L130.404 22.0323ZM113.429 30.049H115.314V17.5103H113.429V30.049Z" fill="white"/>
      <path id="Vector_3" d="M15.9722 12.399C15.6785 12.7062 15.5054 13.1851 15.5054 13.8063V35.9789C15.5054 36.6001 15.6802 37.0791 15.9722 37.3862L16.0474 37.4591L28.5604 25.0366V24.7451L16.0421 12.3262L15.9722 12.399Z" fill="url(#paint0_linear_972_184)"/>
      <path id="Vector_4" d="M32.7249 29.1787L28.5603 25.0367V24.7452L32.7249 20.605L32.8193 20.657L37.7619 23.4438C39.1728 24.2402 39.1728 25.5417 37.7619 26.3381L32.8193 29.1249L32.7249 29.1787Z" fill="url(#paint1_linear_972_184)"/>
      <path id="Vector_5" d="M32.8193 29.125L28.5603 24.8911L15.9722 37.3847C16.4372 37.874 17.2048 37.9347 18.0702 37.4471L32.8246 29.1268" fill="url(#paint2_linear_972_184)"/>
      <path id="Vector_6" d="M32.8193 20.6569L18.0702 12.3366C17.2048 11.849 16.4372 11.9097 15.9722 12.399L28.5603 24.8926L32.8193 20.6569Z" fill="url(#paint3_linear_972_184)"/>
      <path id="Vector_7" opacity="0.2" d="M32.7249 29.0381L18.0702 37.2977C17.2502 37.761 16.5177 37.7298 16.0473 37.3099L15.9722 37.3845L16.0473 37.4556C16.5177 37.8773 17.2502 37.9085 18.0702 37.4452L32.8246 29.1248L32.7249 29.0381Z" fill="#040507"/>
      <path id="Vector_8" opacity="0.12" d="M15.9722 37.2368C15.6785 36.928 15.5054 36.449 15.5054 35.8296V35.9788C15.5054 36.6 15.6802 37.0789 15.9722 37.3878L16.0474 37.3132L15.9722 37.2368Z" fill="#040507"/>
      <path id="Vector_9" opacity="0.12" d="M37.7619 26.1924L32.7249 29.0382L32.8193 29.1319L37.7619 26.3451C38.4612 25.9477 38.8196 25.422 38.8196 24.8979C38.7602 25.3664 38.4018 25.8315 37.7619 26.1924Z" fill="#040507"/>
      <path id="Vector_10" opacity="0.25" d="M18.07 12.4841L37.767 23.5895C38.4069 23.9505 38.7653 24.4155 38.8247 24.8909C38.8247 24.3704 38.4751 23.8411 37.767 23.4438L18.07 12.3366C16.6591 11.5419 15.5051 12.203 15.5051 13.8064V13.9539C15.4999 12.3488 16.6538 11.6859 18.07 12.4841Z" fill="#040507"/>
    </g>
  </g>
  <defs>
    <linearGradient id="paint0_linear_972_184" x1="27.4449" y1="13.572" x2="10.6224" y2="30.5219" gradientUnits="userSpaceOnUse">
      <stop stop-color="#00A0FF"/>
      <stop offset="0.01" stop-color="#00A1FF"/>
      <stop offset="0.26" stop-color="#00BEFF"/>
      <stop offset="0.51" stop-color="#00D2FF"/>
      <stop offset="0.76" stop-color="#00DFFF"/>
      <stop offset="1" stop-color="#00E3FF"/>
    </linearGradient>
    <linearGradient id="paint1_linear_972_184" x1="39.5994" y1="24.891" x2="15.1609" y2="24.891" gradientUnits="userSpaceOnUse">
      <stop stop-color="#FFE000"/>
      <stop offset="0.41" stop-color="#FFBD00"/>
      <stop offset="0.78" stop-color="#FFA500"/>
      <stop offset="1" stop-color="#FF9C00"/>
    </linearGradient>
    <linearGradient id="paint2_linear_972_184" x1="30.501" y1="27.192" x2="7.69047" y2="50.1752" gradientUnits="userSpaceOnUse">
      <stop stop-color="#FF3A44"/>
      <stop offset="1" stop-color="#C31162"/>
    </linearGradient>
    <linearGradient id="paint3_linear_972_184" x1="12.7972" y1="5.01913" x2="22.9843" y2="15.2817" gradientUnits="userSpaceOnUse">
      <stop stop-color="#32A071"/>
      <stop offset="0.07" stop-color="#2DA771"/>
      <stop offset="0.48" stop-color="#15CF74"/>
      <stop offset="0.8" stop-color="#06E775"/>
      <stop offset="1" stop-color="#00F076"/>
    </linearGradient>
    <clipPath id="clip0_972_184">
      <rect width="117" height="27" fill="white" transform="translate(16 12)"/>
    </clipPath>
  </defs>
</svg>
