
<svg height="46" viewBox="0 0 53 46" width="53" xmlns="http://www.w3.org/2000/svg"><g fill="none" fill-rule="evenodd" transform="translate(1 1)"><path d="m30.6569425 29.6569726c-3.1240768 3.1240365-8.1891917 3.1240365-11.3132684 0-3.1248988-3.1240366-3.1248988-8.1890865 0-11.3139452 3.1240767-3.1240365 8.1891916-3.1240365 11.3132684 0 3.1240767 3.1248587 3.1240767 8.1899086 0 11.3139452" fill="#dbebc0"/><path d="m30.6569425 29.6569726c-3.1240768 3.1240365-8.1891917 3.1240365-11.3132684 0-3.1248988-3.1240366-3.1248988-8.1890865 0-11.3139452 3.1240767-3.1240365 8.1891916-3.1240365 11.3132684 0 3.1240767 3.1248587 3.1240767 8.1899086 0 11.3139452z" stroke="#01a081" stroke-width=".8"/><path d="m20 29-5 5" stroke="#01a081" stroke-linecap="round" stroke-width=".8"/><path d="m7 36.5004219c0 2.4847661 2.01481204 4.4995781 4.4995781 4.4995781 2.4856099 0 4.5004219-2.014812 4.5004219-4.4995781s-2.014812-4.5004219-4.5004219-4.5004219c-2.48476606 0-4.4995781 2.0156558-4.4995781 4.5004219" fill="#dbebc0"/><path d="m7 36.5004219c0 2.4847661 2.01481204 4.4995781 4.4995781 4.4995781 2.4856099 0 4.5004219-2.014812 4.5004219-4.4995781s-2.014812-4.5004219-4.5004219-4.5004219c-2.48476606 0-4.4995781 2.0156558-4.4995781 4.5004219z" stroke="#01a081" stroke-width=".8"/><path d="m9 4.5c0 2.48541163 2.0145884 4.5 4.5 4.5s4.5-2.01458837 4.5-4.5-2.0145884-4.5-4.5-4.5-4.5 2.01458837-4.5 4.5" fill="#dbebc0"/><path d="m9 4.5c0 2.48541163 2.0145884 4.5 4.5 4.5s4.5-2.01458837 4.5-4.5-2.0145884-4.5-4.5-4.5-4.5 2.01458837-4.5 4.5z" stroke="#01a081" stroke-width=".8"/><path d="m42 24.4995781c0 2.4847661 2.014812 4.5004219 4.4995781 4.5004219 2.4856099 0 4.5004219-2.0156558 4.5004219-4.5004219s-2.014812-4.4995781-4.5004219-4.4995781c-2.4847661 0-4.4995781 2.014812-4.4995781 4.4995781" fill="#dbebc0"/><path d="m42 24.4995781c0 2.4847661 2.014812 4.5004219 4.4995781 4.5004219 2.4856099 0 4.5004219-2.0156558 4.5004219-4.5004219s-2.014812-4.4995781-4.5004219-4.4995781c-2.4847661 0-4.4995781 2.014812-4.4995781 4.4995781z" stroke="#01a081" stroke-width=".8"/><path d="m33 41c0 1.6572848 1.3433577 3 3.0004139 3 1.6562284 0 2.9995861-1.3427152 2.9995861-3s-1.3433577-3-2.9995861-3c-1.6570562 0-3.0004139 1.3427152-3.0004139 3" fill="#fff"/><path d="m33 41c0 1.6572848 1.3433577 3 3.0004139 3 1.6562284 0 2.9995861-1.3427152 2.9995861-3s-1.3433577-3-2.9995861-3c-1.6570562 0-3.0004139 1.3427152-3.0004139 3z" stroke="#01a081" stroke-width=".8"/><path d="m33 6.99958615c0 1.65705615 1.3433577 3.00041385 3.0004139 3.00041385 1.6562284 0 2.9995861-1.3433577 2.9995861-3.00041385 0-1.65622845-1.3433577-2.99958615-2.9995861-2.99958615-1.6570562 0-3.0004139 1.3433577-3.0004139 2.99958615" fill="#fff"/><path d="m33 6.99958615c0 1.65705615 1.3433577 3.00041385 3.0004139 3.00041385 1.6562284 0 2.9995861-1.3433577 2.9995861-3.00041385 0-1.65622845-1.3433577-2.99958615-2.9995861-2.99958615-1.6570562 0-3.0004139 1.3433577-3.0004139 2.99958615z" stroke="#01a081" stroke-width=".8"/><path d="m0 20.9995861c0 1.6570562 1.3433577 3.0004139 3.00041385 3.0004139 1.65622845 0 2.99958615-1.3433577 2.99958615-3.0004139 0-1.6562284-1.3433577-2.9995861-2.99958615-2.9995861-1.65705615 0-3.00041385 1.3433577-3.00041385 2.9995861" fill="#fff"/><g stroke="#01a081" stroke-width=".8"><path d="m0 20.9995861c0 1.6570562 1.3433577 3.0004139 3.00041385 3.0004139 1.65622845 0 2.99958615-1.3433577 2.99958615-3.0004139 0-1.6562284-1.3433577-2.9995861-2.99958615-2.9995861-1.65705615 0-3.00041385 1.3433577-3.00041385 2.9995861z"/><path d="m29 30 5 8"/><path d="m6 21 11 1"/><path d="m15 8 6 9"/><path d="m34 8-6 8"/><path d="m43 24h-10"/></g></g></svg>