<svg width="153" height="51" viewBox="0 0 153 51" fill="none" xmlns="http://www.w3.org/2000/svg">
<path d="M34.1456 26.4509C34.1592 25.4094 34.4385 24.3881 34.9577 23.4822C35.4769 22.5763 36.219 21.8152 37.115 21.2697C36.5458 20.4646 35.7949 19.802 34.9219 19.3347C34.0489 18.8673 33.0778 18.6079 32.0859 18.5772C29.9699 18.3572 27.9186 19.8311 26.8404 19.8311C25.7412 19.8311 24.0811 18.599 22.2934 18.6354C21.1371 18.6724 20.0101 19.0054 19.0224 19.602C18.0346 20.1985 17.2198 21.0383 16.6572 22.0395C14.2203 26.2179 16.038 32.3587 18.3724 35.7363C19.5404 37.3901 20.9054 39.2375 22.6915 39.172C24.4393 39.1002 25.092 38.0683 27.2017 38.0683C29.2919 38.0683 29.9043 39.172 31.7267 39.1304C33.6021 39.1002 34.7837 37.4692 35.9107 35.7996C36.7499 34.6212 37.3957 33.3187 37.8241 31.9406C36.7345 31.4842 35.8046 30.7203 35.1505 29.744C34.4964 28.7678 34.1469 27.6225 34.1456 26.4509Z" fill="white"/>
<path d="M30.7037 16.3559C31.7262 15.1402 32.23 13.5776 32.108 12C30.5458 12.1625 29.1027 12.9019 28.0663 14.071C27.5596 14.6421 27.1715 15.3065 26.9242 16.0262C26.6769 16.746 26.5753 17.5069 26.6251 18.2656C27.4065 18.2736 28.1796 18.1058 28.8861 17.775C29.5925 17.4442 30.214 16.959 30.7037 16.3559Z" fill="white"/>
<path d="M55.1146 29.756H49.379L48.0016 33.7837H45.5723L51.0049 18.8821H53.5289L58.9616 33.7837H56.4908L55.1146 29.756ZM49.9731 27.8974H54.5195L52.2782 21.3607H52.2155L49.9731 27.8974Z" fill="white"/>
<path d="M70.6944 28.3521C70.6944 31.7283 68.8697 33.8974 66.1161 33.8974C65.4185 33.9335 64.7248 33.7744 64.1144 33.4383C63.5039 33.1021 63.0014 32.6025 62.6643 31.9966H62.6122V37.3779H60.3604V22.9193H62.54V24.7263H62.5815C62.934 24.1234 63.445 23.6263 64.0601 23.2881C64.6752 22.9499 65.3714 22.7831 66.0746 22.8056C68.859 22.8056 70.6944 24.9853 70.6944 28.3521ZM68.3798 28.3521C68.3798 26.1525 67.232 24.7064 65.4806 24.7064C63.7601 24.7064 62.6028 26.183 62.6028 28.3521C62.6028 30.5412 63.7601 32.0072 65.4806 32.0072C67.232 32.0072 68.3797 30.5716 68.3797 28.3521H68.3798Z" fill="white"/>
<path d="M82.7694 28.3521C82.7694 31.7283 80.9441 33.8974 78.1905 33.8974C77.493 33.9335 76.7993 33.7744 76.1888 33.4383C75.5784 33.1021 75.0758 32.6025 74.7388 31.9966H74.6867V37.3779H72.4348V22.9193H74.6145V24.7263H74.6559C75.0085 24.1234 75.5195 23.6263 76.1346 23.2881C76.7497 22.9499 77.4459 22.7831 78.1491 22.8056C80.9335 22.8056 82.7694 24.9853 82.7694 28.3521ZM80.4543 28.3521C80.4543 26.1525 79.3064 24.7064 77.5551 24.7064C75.8345 24.7064 74.6773 26.183 74.6773 28.3521C74.6773 30.5412 75.8345 32.0072 77.5551 32.0072C79.3064 32.0072 80.4543 30.5716 80.4543 28.3521Z" fill="white"/>
<path d="M90.7488 29.6318C90.9156 31.1095 92.3652 32.0798 94.3461 32.0798C96.2441 32.0798 97.6097 31.1095 97.6097 29.777C97.6097 28.6204 96.7861 27.9278 94.836 27.4532L92.8859 26.988C90.1228 26.327 88.8401 25.0473 88.8401 22.9708C88.8401 20.3997 91.1026 18.6337 94.3141 18.6337C97.4949 18.6337 99.6746 20.3997 99.748 22.9708H97.4748C97.3387 21.4837 96.0974 20.586 94.2834 20.586C92.4693 20.586 91.228 21.4942 91.228 22.8161C91.228 23.8696 92.0209 24.4895 93.9603 24.9641L95.6181 25.3672C98.7054 26.0903 99.987 27.3184 99.987 29.4981C99.987 32.286 97.7458 34.0321 94.1792 34.0321C90.8422 34.0321 88.5892 32.327 88.4436 29.6317L90.7488 29.6318Z" fill="white"/>
<path d="M104.849 20.3482V22.9193H106.935V24.6853H104.849V30.6747C104.849 31.6052 105.267 32.0388 106.184 32.0388C106.432 32.0345 106.679 32.0173 106.925 31.9872V33.7427C106.512 33.819 106.093 33.8535 105.674 33.8458C103.453 33.8458 102.587 33.0196 102.587 30.9126V24.6853H100.991V22.9193H102.587V20.3482H104.849Z" fill="white"/>
<path d="M108.142 28.3521C108.142 24.9337 110.175 22.7857 113.345 22.7857C116.526 22.7857 118.55 24.9337 118.55 28.3521C118.55 31.7798 116.537 33.9185 113.345 33.9185C110.155 33.9185 108.142 31.7798 108.142 28.3521ZM116.255 28.3521C116.255 26.0072 115.17 24.6232 113.345 24.6232C111.521 24.6232 110.436 26.0177 110.436 28.3521C110.436 30.7064 111.521 32.0798 113.345 32.0798C115.17 32.0798 116.255 30.7064 116.255 28.3521H116.255Z" fill="white"/>
<path d="M120.406 22.9193H122.554V24.7685H122.606C122.751 24.1909 123.093 23.6805 123.574 23.3231C124.054 22.9656 124.644 22.7829 125.245 22.8056C125.504 22.8047 125.763 22.8326 126.016 22.8888V24.9747C125.689 24.8756 125.347 24.8301 125.005 24.84C124.678 24.8268 124.351 24.8839 124.049 25.0074C123.746 25.1309 123.474 25.3178 123.251 25.5552C123.028 25.7927 122.859 26.0751 122.757 26.3831C122.655 26.6911 122.621 27.0174 122.658 27.3396V33.7837H120.406L120.406 22.9193Z" fill="white"/>
<path d="M136.399 30.5927C136.096 32.565 134.157 33.9185 131.675 33.9185C128.484 33.9185 126.503 31.8009 126.503 28.4036C126.503 24.9958 128.494 22.7857 131.581 22.7857C134.616 22.7857 136.525 24.8505 136.525 28.1447V28.9087H128.776V29.0435C128.74 29.4433 128.791 29.8461 128.924 30.2251C129.058 30.6041 129.271 30.9507 129.55 31.2417C129.83 31.5328 130.168 31.7617 130.543 31.9133C130.919 32.0648 131.322 32.1356 131.727 32.1208C132.259 32.1702 132.793 32.0482 133.25 31.7728C133.706 31.4975 134.061 31.0836 134.261 30.5927L136.399 30.5927ZM128.787 27.3501H134.271C134.292 26.9906 134.237 26.6308 134.11 26.2934C133.983 25.9559 133.787 25.6481 133.534 25.3892C133.282 25.1303 132.978 24.9259 132.642 24.7888C132.305 24.6517 131.944 24.585 131.581 24.5927C131.214 24.5905 130.85 24.6603 130.511 24.798C130.172 24.9357 129.863 25.1386 129.604 25.3949C129.344 25.6513 129.138 25.9561 128.998 26.2916C128.857 26.6272 128.786 26.987 128.787 27.3501V27.3501Z" fill="white"/>
</svg>
