
<svg height="47" viewBox="0 0 51 47" width="51" xmlns="http://www.w3.org/2000/svg"><g fill="none" fill-rule="evenodd" transform="translate(1)"><path d="m15.3036667 21.5223333c2.1583333-.0316666 4.1375-5.4425 5.2516666-7.2916666 2.0325-3.3733334 2.3533334-6.86583337 2.3533334-10.0191667 0-4.90833333 9.0375-8.03416667 6.6758333 12.0416667-.2816667 2.3875 8.1625 3.2033333 12.66 2.77 1.9141667-.1841667 3.7908333.6033333 4.9766667 2.1175l.0283333.0375c1.1925 1.5416666.8391667 3.685-.7825 4.7633333l-.5875.39.42.1266667c1.34.4033333 2.3391667 1.5608333 2.4808333 2.9533333.0025.0266667.005.0525.0075.0791667.0975 1.07-.355 2.1166666-1.1525 2.8366666l-.97.8766667.6125 1.1166667c.7691667 1.4041666.595 3.1375-.4391666 4.3591666l-.9591667 1.1341667c.1208333.2066667.2675.4391667.4258333.69 1.335 2.1125.1833334 4.9116667-2.2516666 5.475l-12.255.1483333c-1.8616667.0233334-3.72-.1808333-5.5325-.6075l-12.5075-2.9433333c-.9633334-.2266667-1.9533334-.32-2.9416667-.2766667l-3.02666667.1316667.78583334-20.8116667z" fill="#dbebc0"/><path d="m15.3036667 21.5223333c2.1583333-.0316666 4.1375-5.4425 5.2516666-7.2916666 2.0325-3.3733334 2.3533334-6.86583337 2.3533334-10.0191667 0-4.90833333 9.0375-8.03416667 6.6758333 12.0416667-.2816667 2.3875 8.1625 3.2033333 12.66 2.77 1.9141667-.1841667 3.7908333.6033333 4.9766667 2.1175l.0283333.0375c1.1925 1.5416666.8391667 3.685-.7825 4.7633333l-.5875.39.42.1266667c1.34.4033333 2.3391667 1.5608333 2.4808333 2.9533333.0025.0266667.005.0525.0075.0791667.0975 1.07-.355 2.1166666-1.1525 2.8366666l-.97.8766667.6125 1.1166667c.7691667 1.4041666.595 3.1375-.4391666 4.3591666l-.9591667 1.1341667c.1208333.2066667.2675.4391667.4258333.69 1.335 2.1125.1833334 4.9116667-2.2516666 5.475l-12.255.1483333c-1.8616667.0233334-3.72-.1808333-5.5325-.6075l-12.5075-2.9433333c-.9633334-.2266667-1.9533334-.32-2.9416667-.2766667l-3.02666667.1316667.78583334-20.8116667z" stroke="#01a081" stroke-linejoin="round"/><path d="m.19916667 46.2925h10.86416663v-28.1533333h-10.86416663z" fill="#dbebc0"/><path d="m.19916667 46.2925h10.86416663v-28.1533333h-10.86416663z" stroke="#01a081" stroke-linejoin="round"/><path d="m7.82358333 41.3815c0 1.2108333-.98166666 2.1925-2.1925 2.1925-1.21083333 0-2.1925-.9816667-2.1925-2.1925s.98166667-2.1925 2.1925-2.1925c1.21083334 0 2.1925.9816667 2.1925 2.1925" fill="#fff"/><path d="m7.82358333 41.3815c0 1.2108333-.98166666 2.1925-2.1925 2.1925-1.21083333 0-2.1925-.9816667-2.1925-2.1925s.98166667-2.1925 2.1925-2.1925c1.21083334 0 2.1925.9816667 2.1925 2.1925z" stroke="#01a081" stroke-linejoin="round"/></g></svg>