
<svg height="51" viewBox="0 0 44 51" width="44" xmlns="http://www.w3.org/2000/svg"><g fill="none" fill-rule="evenodd" transform="translate(1 1)"><path d="m20.86725 14.45325s-10.6083333-5.5975-9.6566667-7.24583333c.9516667-1.65 7.1575-5.49166667 10.4966667-5.59416667 3.3391667-.10333333-.84 12.84-.84 12.84" fill="#e6efce"/><path d="m20.86725 14.45325s-10.6083333-5.5975-9.6566667-7.24583333c.9516667-1.65 7.1575-5.49166667 10.4966667-5.59416667 3.3391667-.10333333-.84 12.84-.84 12.84z" stroke="#01a081" stroke-width=".979"/><path d="m23.13775 14.6965833s-6.2225-11.05249997-4.4458333-11.99249997c1.7758333-.94083333 9.4466666-.865 12.4616666.93916667 3.0141667 1.80416667-8.0158333 11.0533333-8.0158333 11.0533333" fill="#e6efce"/><path d="m23.13775 14.6965833s-6.2225-11.05249997-4.4458333-11.99249997c1.7758333-.94083333 9.4466666-.865 12.4616666.93916667 3.0141667 1.80416667-8.0158333 11.0533333-8.0158333 11.0533333z" stroke="#01a081" stroke-width=".979"/><path d="m28.6334167 49.1765833h-15.4325c-7.18250003 0-13.00583337-5.0575-13.00583337-11.2966666 0-12.9241667 16.13249997-25.5283334 21.12249997-25.3325 10.3575.4058333 20.2141667 16.1741666 20.3216667 25.3325.1191667 10.0258333-5.8225 11.2966666-13.0058333 11.2966666" fill="#e6efce"/><path d="m28.6334167 49.1765833h-15.4325c-7.18250003 0-13.00583337-5.0575-13.00583337-11.2966666 0-12.9241667 16.13249997-25.5283334 21.12249997-25.3325 10.3575.4058333 20.2141667 16.1741666 20.3216667 25.3325.1191667 10.0258333-5.8225 11.2966666-13.0058333 11.2966666z" stroke="#01a081" stroke-width=".979"/><path d="m21.31775 12.5473333s-8.0233333-8.91666663-6.5608333-10.1358333c1.4633333-1.21916667 8.6141666-2.68166667 11.7841666-1.625 3.1683334 1.05583333-5.2233333 11.7608333-5.2233333 11.7608333" fill="#e6efce"/><path d="m21.31775 12.5473333s-8.0233333-8.91666663-6.5608333-10.1358333c1.4633333-1.21916667 8.6141666-2.68166667 11.7841666-1.625 3.1683334 1.05583333-5.2233333 11.7608333-5.2233333 11.7608333z" stroke="#01a081" stroke-width=".979"/><path d="m25.5234167 13.786h-7.9633334l-.4841666-1.6658333h8.9275z" fill="#01a081"/><path d="m22.2348333 38.1048333c.625-.0775 1.0783334-.2216666 1.3625-.4325.4983334-.3641666.7475-1.0016666.7475-1.9041666 0-.6875-.2333333-1.2308334-.7-1.6308334-.2766666-.2308333-.7466666-.4708333-1.41-.7183333zm-1.1633333-12.5258333c-.695.015-1.2108333.2025-1.5458333.5566667-.3358334.3566666-.5033334.8408333-.5033334 1.4575 0 .67.2516667 1.2033333.755 1.5925.2791667.2183333.7108334.4183333 1.2941667.6025zm1.1633333 17.6083333h-1.1633333v-2.3841666c-1.5741667-.1766667-2.7491667-.52-3.5241667-1.0308334-1.3666666-.92-2.0375-2.485-2.0141666-4.7h3.2366666c.1125 1.0075.2683334 1.6841667.4675 2.025.3116667.5383334.9233334.885 1.8341667 1.0441667v-5.12l-.9708333-.2875c-1.5266667-.445-2.6041667-1.0683333-3.2308334-1.87-.6275-.7966667-.9408333-1.7608333-.9408333-2.8875 0-.7433333.1216667-1.4175.365-2.025.2441667-.6075.5858333-1.1316667 1.0258333-1.5716667.5675-.5666666 1.1991667-.9591666 1.8941667-1.175.4233333-.1358333 1.0425-.2341666 1.8575-.3008333v-1.5925h1.1633333v1.6191667c1.2958334.1041666 2.315.4241666 3.0541667.9583333 1.345.8558333 2.04 2.2408333 2.0883333 4.1591667h-3.1525c-.0641666-.7116667-.1816666-1.2308334-.3558333-1.5583334-.2991667-.5675-.8441667-.8791666-1.6341667-.9358333v4.5691667c1.8933334.6558333 3.1658334 1.2333333 3.8183334 1.7375 1.075.8391666 1.6116666 2.0216666 1.6116666 3.5483333 0 2.0141667-.7391666 3.4766667-2.2175 4.3866667-.9033333.56-1.9741666.8875-3.2125.9833333z" fill="#01a081"/><g stroke="#01a081" stroke-linecap="round"><path d="m21.5989167 12.95425c-2.4691667-.0816667-6.5325 5.2008333-6.5325 5.2008333"/><path d="m20.9181667 12.95425c2.4691666-.0816667 6.5325 5.2008333 6.5325 5.2008333"/></g></g></svg>