
<svg height="47" viewBox="0 0 41 47" width="41" xmlns="http://www.w3.org/2000/svg"><g fill="none" fill-rule="evenodd" transform=""><path d="m19.084 8.942h2.708v-4.864h-2.708z" fill="#e6efce"/><path d="m19.084 8.942h2.708v-4.864h-2.708z" stroke="#01a081" stroke-width=".816"/><path d="m24.5361 4.0776h-8.614c-.901 0-1.631-.73-1.631-1.63 0-.901.73-1.631 1.631-1.631h8.614c.9 0 1.63.73 1.63 1.631 0 .9-.73 1.63-1.63 1.63" fill="#e6efce"/><path d="m24.5361 4.0776h-8.614c-.901 0-1.631-.73-1.631-1.63 0-.901.73-1.631 1.631-1.631h8.614c.9 0 1.63.73 1.63 1.631 0 .9-.73 1.63-1.63 1.63z" stroke="#01a081" stroke-width=".816"/><path d="m20.5 7.2751c-10.833 0-19.617 8.783-19.617 19.616 0 10.834 8.784 19.625 19.617 19.625s19.617-8.791 19.617-19.625c0-10.833-8.784-19.616-19.617-19.616" fill="#e6efce"/><path d="m20.5 43.1831c-8.992 0-16.283-7.292-16.283-16.292 0-8.991 7.291-16.283 16.283-16.283s16.283 7.292 16.283 16.283c0 9-7.291 16.292-16.283 16.292" fill="#fff"/><path d="m20.5 43.1831c-8.992 0-16.283-7.292-16.283-16.292 0-8.991 7.291-16.283 16.283-16.283s16.283 7.292 16.283 16.283c0 9-7.291 16.292-16.283 16.292zm0-35.908c-10.833 0-19.617 8.783-19.617 19.616 0 10.834 8.784 19.625 19.617 19.625s19.617-8.791 19.617-19.625c0-10.833-8.784-19.616-19.617-19.616z" stroke="#01a081" stroke-width=".816"/><path d="m27.0825 14.1001c-1.041 2.136-2.03 4.296-3.018 6.457l-1.453 3.253-.724 1.629c-.211.557-.586 1.038-.517 1.723.042.41-.257.776-.668.817-.41.042-.776-.257-.817-.668-.028-.277.1-.535.313-.685.563-.396.682-.995.965-1.518l.758-1.613 1.511-3.228c.987-2.16 1.974-4.321 2.908-6.506.089-.207.328-.304.536-.215.207.089.303.328.214.535-.002.006-.005.013-.008.019" fill="#01a081"/><g stroke="#01a081" stroke-linecap="round" stroke-width=".816"><path d="m35.3335 26.8936h-2.014"/><path d="m20.7847 41.4766v-2.014"/><path d="m20.7847 14.1846v-2.014"/><path d="m7.605 26.8936h-2.014"/><path d="m31.0273 16.3579-1.424 1.424"/><path d="m31.0513 36.9565-1.424-1.424"/><path d="m11.7534 17.6587-1.424-1.424"/><path d="m11.4204 35.9648-1.424 1.424"/></g></g></svg>